<?xml version="1.0" encoding="UTF-8"?>
<svg id="OBJECTS" xmlns="http://www.w3.org/2000/svg" viewBox="0 0 500 500">
  <defs>
    <style>
      .cls-1 {
        fill: none;
      }

      .cls-2 {
        fill: #fff0c4;
      }

      .cls-3 {
        fill: #e9c46a;
      }
    </style>
  </defs>
  <g>
    <path class="cls-2" d="M256.71,313.53c-26.58,0-50.33-14.6-62.25-38.17h-28.7v-29.69c-24.33-11.63-39.4-35.54-39.4-62.65s14.14-49.34,36.9-61.38c.83-.44,1.66-.86,2.5-1.26v-29.69h28.12c.75-1.56,1.56-3.09,2.41-4.56.53-.94,1.11-1.9,1.73-2.84,12.8-19.98,34.75-31.91,58.69-31.91s45.9,11.95,58.73,31.96c1.16,1.8,2.22,3.63,3.15,5.45.32.6.64,1.24.96,1.89h26.3v28.11c1.24.51,2.47,1.07,3.68,1.65,24.21,11.7,39.24,35.68,39.24,62.58,0,28.36-16.81,53.44-42.92,64.22v28.12h-26.89c-11.92,23.57-35.68,38.17-62.25,38.17ZM169.06,272.07h27.45l.45.92c11.2,22.97,34.1,37.24,59.75,37.24s48.55-14.27,59.75-37.24l.45-.92h25.64v-27.06l1.04-.41c25.44-10.04,41.88-34.21,41.88-61.58,0-25.63-14.32-48.47-37.38-59.62-1.47-.71-2.99-1.37-4.5-1.97l-1.04-.41v-27.05h-25.1l-.44-.95c-.44-.94-.89-1.85-1.34-2.71-.9-1.74-1.9-3.49-3-5.19-12.22-19.07-33.14-30.45-55.96-30.45s-43.73,11.37-55.93,30.41c-.58.89-1.13,1.79-1.63,2.68-.99,1.71-1.9,3.47-2.74,5.27l-.44.95h-26.92v28.5l-.96.44c-1.1.51-2.21,1.06-3.3,1.63-21.68,11.48-35.15,33.88-35.15,58.48,0,26.16,14.73,49.19,38.44,60.11l.96.44v28.5Z"/>
    <g>
      <path class="cls-1" d="M184.96,130.26v3.43l-4.21,1.34c-3.26,1.03-6.34,2.37-9.24,3.96,7.62,2.71,14.97,6.05,21.96,10.04-1.69-6.7-4.57-13.1-8.51-18.77Z"/>
      <path class="cls-1" d="M256.71,70.56c-15.79,0-30.17,7.18-39.55,18.92,3.29,3.02,6.41,6.07,9.28,9.15,14.43,15.41,24.31,32.09,29.33,49.58,1.07,3.75,1.89,7.51,2.54,11.32,7.46-25.11,21.34-48.6,39.81-67.52-9.25-13.23-24.53-21.44-41.42-21.44ZM248.99,108.13s-13.99,2.99-11.6-15.54c18.47,2.8,11.6,15.54,11.6,15.54ZM258.98,133.61s-13.48-4.79-1.73-19.31c14.26,12.07,1.73,19.31,1.73,19.31ZM269.01,112.29s-9.77-10.45,7.34-17.95c7.12,17.27-7.34,17.95-7.34,17.95Z"/>
      <path class="cls-1" d="M219.3,105.32c-2.36-2.52-4.88-5.02-7.54-7.5-.97,1.86-1.82,3.82-2.54,5.82h0c-.25.68-.48,1.35-.7,2.03l-1.34,4.2h-22.22v5.25c11.03,10.77,18.17,25.49,19.72,40.9h-.18c6.09,4.29,11.86,8.99,17.19,14.23,11.65,11.42,21.37,26.4,28.37,43.27.18-3.74.43-7.43.73-11.07.25-18.85.09-35.7-4.44-51.55-4.58-15.98-13.7-31.31-27.06-45.58ZM217.89,149.07s-16.84-7.97.18-24.96c16.61,17.39-.18,24.96-.18,24.96ZM241.89,177.08s-18.58-1.3-8.92-23.32c21.8,10.16,8.92,23.32,8.92,23.32Z"/>
      <path class="cls-1" d="M260.58,202.92l-.3,22.07c4.28-12.67,9.7-24.17,16.47-34.51,4.35-6.67,9.44-12.92,15.1-18.58,6.07-6.13,12.79-11.52,19.96-16.09,1.07-15.79,6.19-30.84,14.83-44.1v-1.83h-20.41l-.32-.99-1.03-3.21c-.52-1.61-1.11-3.19-1.77-4.72-19.3,20.52-32.98,46.41-38.5,73.62-1.82,9.03-3.18,18.56-4.05,28.34ZM299.04,124.11c17.01,16.99.17,24.96.17,24.96,0,0-16.79-7.58-.17-24.96ZM284.12,153.76c9.67,22.02-8.92,23.32-8.92,23.32,0,0-12.88-13.16,8.92-23.32Z"/>
      <path class="cls-1" d="M166.09,179.69c.05-.03.1-.05.15-.09,3.04-1.67,6.14-3.19,9.31-4.53.27-.12.52-.23.78-.34,16.94-7.42,26.44-7.57,26.77-7.57,0,0,.01,0,.02,0-12.17-9.33-26.01-16.41-40.83-20.91v-.71c-10.44,9.31-16.74,22.79-16.74,37.49,0,2.95.25,5.85.76,8.68,0,0,0,0,0,0,7.21-4.93,13.82-8.86,19.77-12.01,0,0,0,0,0,0ZM183.15,162.51s-4.59,12.63-17.93,1.56c11.36-13.1,17.93-1.56,17.93-1.56Z"/>
      <path class="cls-1" d="M344.8,188.54c-12.06-4.33-28.22-8.05-47.85-7.78,0,0,0,0,0,0-4.45,4.67-8.49,9.72-11.99,15.08-13.53,20.66-21.67,65.18-24.8,98.37,20.2-1.36,37.79-14.66,44.4-33.97l1.39-4.08h20.71v-23.14l4.58-1.13c17.07-4.22,30.26-16.76,35.65-32.66-2.73-1.78-7.48-4.59-14.06-7.49,0,0-5.31-2.08-8.04-3.21ZM287.45,209.61s1.27-18.37,23.35-8.84c-10.02,21.86-23.35,8.84-23.35,8.84ZM322.33,195.49s14.33-11.57,22.36,11.09c-22.84,7.53-22.36-11.09-22.36-11.09Z"/>
      <path class="cls-1" d="M358.21,151.18s0,0,0,0c-9.37-.54-26.78,1.72-49.82,19.06,0,0-.02.01-.02.02,0,0-.01,0-.01.01h0s0,0,0,0c4.39.15,10.78.79,19.08,2.64.1.02.2.04.29.06.07.01.13.03.2.04,3.62.77,7.2,1.72,10.74,2.85.5.15,1.02.32,1.55.48.04.01.08.03.12.04,8.38,2.62,18.05,6.33,29,11.55,0,0,0,0,0,0,.16-1.61.24-3.25.24-4.9,0-11.97-4.19-23.1-11.36-31.84ZM330.69,164.32s6.57-11.54,17.93,1.56c-13.35,11.07-17.93-1.56-17.93-1.56Z"/>
      <path class="cls-1" d="M347.63,141.47c-3.08-2.12-6.41-3.89-9.96-5.29-.01.01-.02,0-.02,0-.66-.26-1.33-.5-2.01-.73-1.44-.5-2.91-.93-4.4-1.31l-4.52-1.12c-2.07,5.44-3.56,11.09-4.43,16.88,8.26-4.06,16.79-6.9,25.34-8.43Z"/>
      <path class="cls-1" d="M214.84,177.24c-.46-.45-.97-.87-1.44-1.32,0,0,0,0,0,0h0c-19.97,2.41-35.77,8.73-47.3,15.15-1.28.8-3.8,2.21-3.8,2.21-5.44,3.3-9.74,6.5-12.89,9.11h0c5.56,13.38,16.8,24,31.34,28.62l4.21,1.34v23.82h22.51l1.4,4.08c6.23,18.19,22.21,31.05,40.94,33.62l.25-31.12c.11-13.5-2.11-26.95-6.75-39.63-6.59-18.05-16.44-34.07-28.48-45.88ZM170.23,203.32c8.04-22.66,22.36-11.09,22.36-11.09,0,0,.47,18.62-22.36,11.09ZM202.5,196.42c22.08-9.53,23.35,8.84,23.35,8.84,0,0-13.32,13.02-23.35-8.84Z"/>
      <path class="cls-3" d="M346.43,126.86c-2.44-1.17-4.96-2.2-7.57-3.07-.04-.01-.1-.03-.14-.04v-25.94h-23.82c-.79-1.99-1.67-3.9-2.65-5.77-.86-1.67-1.8-3.29-2.81-4.86-11.3-17.63-30.92-28.68-52.72-28.68s-41.43,11.06-52.72,28.68c-.54.82-1.04,1.66-1.52,2.51-1.49,2.58-2.81,5.29-3.94,8.12h-25.63v27.22c-2.17.86-4.27,1.83-6.3,2.91-20.18,10.68-33.1,31.63-33.1,55.08,0,25.8,15.65,48.58,39.4,57.99v27.22h26.12c9.73,23,32.39,38.17,57.7,38.17s47.97-15.17,57.7-38.17h24.31v-25.95c25.5-8.38,42.92-32.1,42.92-59.26,0-24.33-13.97-45.89-35.21-56.16ZM331.24,134.15c1.49.37,2.96.8,4.4,1.31.68.23,1.35.47,2.01.73,0,0,.01.01.02,0,3.55,1.39,6.88,3.17,9.96,5.29-8.54,1.54-17.08,4.38-25.34,8.43.87-5.79,2.36-11.44,4.43-16.88l4.52,1.12ZM303.13,100.96c.66,1.52,1.25,3.1,1.77,4.72l1.03,3.21.32.99h20.41v1.83c-8.64,13.26-13.75,28.31-14.83,44.1-7.17,4.57-13.9,9.96-19.96,16.09-5.66,5.66-10.75,11.91-15.1,18.58-6.78,10.33-12.2,21.84-16.47,34.51l.3-22.07c.87-9.78,2.23-19.31,4.05-28.34,5.52-27.21,19.19-53.1,38.5-73.62ZM180.75,135.04l4.21-1.34v-3.43c3.94,5.67,6.82,12.07,8.51,18.77-6.99-3.98-14.34-7.33-21.96-10.04,2.9-1.59,5.98-2.93,9.24-3.96ZM146.32,191.7c-.5-2.83-.76-5.73-.76-8.68,0-14.7,6.3-28.18,16.74-37.49v.71c14.83,4.5,28.66,11.57,40.83,20.91,0,0-.01,0-.02,0-.33,0-9.83.16-26.77,7.57-.26.11-.51.22-.78.34-3.17,1.34-6.27,2.86-9.31,4.53-.05.03-.1.05-.15.09,0,0,0,0,0,0-5.96,3.15-12.56,7.08-19.77,12.01,0,0,0,0,0,0ZM249.81,293.87c-18.73-2.57-34.71-15.43-40.94-33.62l-1.4-4.08h-22.51v-23.82l-4.21-1.34c-14.53-4.62-25.78-15.23-31.34-28.62h0c3.15-2.61,7.45-5.81,12.89-9.11,0,0,2.52-1.41,3.8-2.21,11.54-6.43,27.33-12.74,47.3-15.15h0s0,0,0,0c.47.45.98.87,1.44,1.32,12.04,11.81,21.89,27.83,28.48,45.88,4.64,12.68,6.86,26.13,6.75,39.63l-.25,31.12ZM250.8,202.46c-.31,3.64-.56,7.33-.73,11.07-7.01-16.87-16.73-31.85-28.37-43.27-5.33-5.23-11.1-9.94-17.19-14.21h.18c-1.55-15.42-8.69-30.14-19.72-40.91v-5.25h22.22l1.34-4.2c.22-.68.45-1.35.7-2.02h0c.72-2.02,1.58-3.97,2.54-5.84,2.65,2.48,5.18,4.98,7.54,7.5,13.36,14.27,22.47,29.6,27.06,45.58,4.53,15.85,4.69,32.7,4.44,51.55ZM255.77,148.21c-5.02-17.48-14.89-34.17-29.33-49.58-2.87-3.08-5.99-6.13-9.28-9.15,9.38-11.74,23.76-18.92,39.55-18.92,16.89,0,32.17,8.22,41.42,21.44-18.47,18.92-32.36,42.41-39.81,67.52-.66-3.81-1.47-7.57-2.54-11.32ZM331.24,231.9l-4.58,1.13v23.14h-20.71l-1.39,4.08c-6.61,19.3-24.2,32.61-44.4,33.97,3.13-33.19,11.26-77.71,24.8-98.37,3.5-5.36,7.54-10.41,11.99-15.08,0,0,0,0,0,0,19.63-.27,35.78,3.45,47.85,7.78,2.73,1.13,8.04,3.21,8.04,3.21,6.58,2.9,11.32,5.71,14.06,7.49-5.4,15.9-18.58,28.43-35.65,32.66ZM369.33,187.93c-10.95-5.22-20.63-8.92-29-11.55-.04-.01-.08-.03-.12-.04-.53-.16-1.04-.33-1.55-.48-3.54-1.13-7.12-2.08-10.74-2.85-.07-.01-.13-.03-.2-.04-.1-.02-.2-.04-.29-.06-8.3-1.85-14.69-2.49-19.08-2.64,0,0,0,0,0,0h0s.01-.01.01-.01c0,0,.02-.01.02-.02,23.03-17.33,40.45-19.6,49.82-19.06,0,0,0,0,0,0,7.17,8.74,11.36,19.87,11.36,31.84,0,1.66-.08,3.29-.24,4.9,0,0,0,0,0,0Z"/>
      <path class="cls-3" d="M269.01,112.29s14.45-.68,7.34-17.95c-17.11,7.5-7.34,17.95-7.34,17.95Z"/>
      <path class="cls-3" d="M237.38,92.59c-2.39,18.53,11.6,15.54,11.6,15.54,0,0,6.87-12.74-11.6-15.54Z"/>
      <path class="cls-3" d="M257.25,114.3c-11.75,14.52,1.73,19.31,1.73,19.31,0,0,12.53-7.24-1.73-19.31Z"/>
      <path class="cls-3" d="M284.12,153.76c-21.8,10.16-8.92,23.32-8.92,23.32,0,0,18.58-1.3,8.92-23.32Z"/>
      <path class="cls-3" d="M299.21,149.07s16.84-7.97-.17-24.96c-16.61,17.39.17,24.96.17,24.96Z"/>
      <path class="cls-3" d="M287.45,209.61s13.32,13.02,23.35-8.84c-22.08-9.53-23.35,8.84-23.35,8.84Z"/>
      <path class="cls-3" d="M322.33,195.49s-.47,18.62,22.36,11.09c-8.04-22.67-22.36-11.09-22.36-11.09Z"/>
      <path class="cls-3" d="M330.69,164.32s4.59,12.63,17.93,1.56c-11.36-13.1-17.93-1.56-17.93-1.56Z"/>
      <path class="cls-3" d="M232.98,153.76c-9.67,22.02,8.92,23.32,8.92,23.32,0,0,12.88-13.16-8.92-23.32Z"/>
      <path class="cls-3" d="M217.89,149.07s16.79-7.58.18-24.96c-17.01,16.99-.18,24.96-.18,24.96Z"/>
      <path class="cls-3" d="M202.5,196.42c10.02,21.86,23.35,8.84,23.35,8.84,0,0-1.27-18.37-23.35-8.84Z"/>
      <path class="cls-3" d="M170.23,203.32c22.84,7.53,22.36-11.09,22.36-11.09,0,0-14.33-11.57-22.36,11.09Z"/>
      <path class="cls-3" d="M183.15,162.51s-6.57-11.54-17.93,1.56c13.35,11.07,17.93-1.56,17.93-1.56Z"/>
    </g>
  </g>
  <g>
    <path class="cls-3" d="M60.73,356.31c1.51-.4,3.01-.67,4.51-.81,1.5-.14,2.86-.07,4.08.2,1.22.27,2.35.74,3.38,1.4,1.04.66,1.52,1.22,1.44,1.67-.08.45-.24.75-.47.9-.24.15-.73,0-1.48-.46s-1.68-.83-2.78-1.12c-1.11-.3-2.27-.38-3.49-.26s-2.25.27-3.08.43c-.84.17-1.71.41-2.61.73-.91.32-1.89.87-2.95,1.63-1.06.77-2.03,1.75-2.9,2.95-.87,1.2-1.48,2.41-1.82,3.63s-.55,2.03-.64,2.43c-.09.4-.1,1.27-.05,2.61.05,1.34.2,2.49.43,3.44.24.95.59,2.03,1.06,3.23s1.33,2.32,2.57,3.34c1.25,1.03,2.79,1.9,4.63,2.61,1.84.71,3.55,1.15,5.15,1.29,1.59.15,3.14.15,4.63,0,1.49-.15,2.97-.5,4.43-1.06,1.46-.56,2.8-1.22,4.01-1.99s2.2-1.66,2.98-2.68c.77-1.02,1.64-1.41,2.59-1.16.95.24,1.44.71,1.48,1.41.04.7-.1,1.58-.42,2.64.63,1.71,1.72,2.53,3.29,2.46v5.25c-1.55.02-2.82-.34-3.82-1.07-.99-.73-1.81-1.59-2.46-2.59-.71.38-1.71.89-2.99,1.52-1.28.63-2.94,1.22-4.97,1.76-2.03.55-4.57.67-7.62.37-3.05-.3-5.75-.98-8.12-2.03-2.36-1.04-4.07-2.09-5.14-3.12-1.06-1.04-2-2.32-2.81-3.85-.81-1.53-1.31-3.66-1.5-6.39-.19-2.73-.02-5.21.52-7.44s1.21-4.01,2.01-5.33c.8-1.32,1.64-2.35,2.52-3.07.88-.72,1.79-1.38,2.73-1.99.94-.6,2.17-1.1,3.67-1.5ZM74.72,371.5h1.42c.44,0,.75.2.93.6.17.4.26.81.26,1.22s-.28.97-.85,1.69c-.57.71-1.11,1.07-1.63,1.07h-.85s-.28-.08-.71-.25c-.43-.17-.78-.5-1.06-.99-.28-.5-.23-1.1.14-1.82.38-.71.78-1.15,1.2-1.29.43-.15.81-.22,1.14-.22ZM77.42,365.43h1.42c.44,0,.75.2.93.6.17.4.26.81.26,1.22s-.28.97-.85,1.69c-.57.71-1.11,1.07-1.63,1.07h-.85s-.28-.08-.71-.25c-.43-.17-.78-.5-1.06-.99-.28-.5-.23-1.1.14-1.82.37-.71.78-1.15,1.2-1.29.43-.15.81-.22,1.14-.22ZM80.46,370.58h1.4c.19,0,.43.08.71.24.28.16.54.49.78.99.24.51.25,1.26.01,2.27-.24,1.01-.71,1.52-1.42,1.52s-1.27-.04-1.66-.12c-.39-.08-.72-.38-.99-.91-.27-.53-.44-.91-.5-1.12-.06-.22.02-.75.24-1.59.22-.84.7-1.27,1.44-1.27Z"/>
    <path class="cls-3" d="M93.96,367.81h.52c1.22,0,2.82,1.94,4.81,5.83.35.96.52,2.15.52,3.58,0,5.3-1.85,9.31-5.54,12.05-1.71,1.24-3.49,1.84-5.36,1.8l-1.12-.03v-5.23c1.27,0,2.67-.15,4.18-.44,1.69-.5,2.74-1.15,3.14-1.93.7-.96,1.04-2.26,1.04-3.89,0-2.18-1.43-4.15-4.29-5.91-.42-.66-.63-1.31-.63-1.93.66-2.6,1.57-3.89,2.72-3.89ZM90.93,393.53h.94c1.03,0,1.73.57,2.09,1.7v1.1c-.38,1.73-1.29,2.59-2.72,2.59h-.52c-1.6-.64-2.41-1.51-2.41-2.59v-.6c.52-1.46,1.39-2.2,2.61-2.2ZM97.8,391.54c1.67,0,2.51.83,2.51,2.48,0,1.36-.7,2.28-2.09,2.77l-.94.21h-.42c-1.46-.45-2.2-1.18-2.2-2.2l-.1-.68c0-1.43,1.01-2.29,3.03-2.59h.21Z"/>
    <path class="cls-3" d="M111.16,391.63c-.05.5-.14,1.25-.27,2.26s-.42,1.99-.86,2.93c-.44.94-.86,1.77-1.25,2.5-.39.72-.83,1.45-1.32,2.17-.49.72-.99,1.45-1.5,2.17-.51.72-1.29,1.61-2.31,2.67-1.03,1.05-1.99,1.83-2.88,2.34-.89.5-1.64.92-2.26,1.24s-1.65.73-3.1,1.21c-1.45.49-2.22.77-2.31.85s-.98.23-2.64.44-3.07.31-4.22.29c-1.15-.03-2.03-.07-2.64-.13-.61-.06-1.6-.26-2.97-.59-1.37-.33-2.91-.79-4.61-1.39-1.71-.59-2.79-1.24-3.25-1.95-.46-.71-.67-1.26-.63-1.67.04-.41.25-.67.63-.8s.79-.16,1.24-.12c.45.04,1.16.33,2.12.86.96.53,1.76.9,2.42,1.1.65.2,1.41.37,2.26.5.85.13,1.94.27,3.25.42,1.32.15,2.54.18,3.68.1,1.14-.08,2.21-.19,3.19-.34.99-.15,2.09-.49,3.31-1.02s2.17-.97,2.85-1.31,1.52-.9,2.52-1.67,1.85-1.51,2.54-2.2c.69-.69,1.3-1.37,1.84-2.05s.97-1.28,1.28-1.8.56-1,.75-1.42c.18-.43.39-.99.61-1.69s.41-1.28.54-1.75c.13-.47.21-1.08.25-1.84.03-.76-.14-1.46-.54-2.1-.39-.64-.7-1.35-.92-2.12s-.29-1.45-.22-2.04c.07-.59.2-1.06.39-1.41.19-.35.34-.78.44-1.31s.31-1,.63-1.44.65-.7,1.01-.78c.36-.09.65-.03.88.16.23.19.32.52.27.99-.04.47.03.99.24,1.55.2.57.47,1.01.8,1.33s.56,1.42.68,3.29c.12,1.87.16,3.06.1,3.55Z"/>
    <path class="cls-3" d="M116.23,354.25c.58,0,1.37.35,2.38,1.04,1.01.7,1.52,1.64,1.52,2.84v2.38c0,.39.03.83.09,1.32.06.49.09,1.15.09,1.99v1.78c0,.35.01.69.04,1.03.03.34.05.69.08,1.06.03.37.05,1.12.07,2.26.02,1.14.02,2.75,0,4.81s0,3.45.07,4.16c.06.71.09,1.26.09,1.66s.08,1,.25,1.8c.17.8.59,1.75,1.27,2.83.68,1.09,1.05,1.83,1.1,2.22.05.39.08.72.08.98s-.08.77-.23,1.52c-.16.75-.61,1.12-1.35,1.12s-1.68-.27-2.81-.81c-1.13-.54-1.7-1-1.7-1.38v-2.42c0-.36.11-.87.34-1.53s.3-2.19.22-4.57c-.08-2.39-.12-4-.13-4.85,0-.84,0-1.51,0-2,0-.49,0-1-.04-1.54s-.05-1.78-.05-3.71-.07-3.43-.22-4.48c-.15-1.05-.46-1.74-.93-2.05-.47-.31-.96-.87-1.46-1.67-.51-.8-.76-1.33-.76-1.58s.19-1.01.58-2.29c.38-1.27.86-1.91,1.44-1.91Z"/>
    <path class="cls-3" d="M135.8,376.06c1.62-.27,3.25.2,4.9,1.41,1.65,1.21,2.37,4.01,2.16,8.4.33,0,.76-.02,1.28-.05v5.23c-.78.1-1.47.17-2.06.21-1.12,3.97-2.42,7.04-3.92,9.21-1.5,2.17-3.5,4.06-6.01,5.68-2.51,1.62-4.94,2.72-7.3,3.31-2.36.58-4.63.95-6.82,1.08-2.19.14-4.25.11-6.18-.09-1.93-.2-4.17-.72-6.7-1.57-2.54-.85-4.68-1.94-6.44-3.28s-2.78-2.52-3.06-3.54c-.28-1.02-.31-1.74-.09-2.17s.49-.63.82-.61c.33.02.98.56,1.93,1.63.96,1.07,1.98,1.95,3.07,2.64s2.44,1.35,4.05,1.99c1.61.64,3.49,1.13,5.65,1.48,2.15.35,4.85.38,8.09.09,3.24-.29,6-1.08,8.29-2.39,2.28-1.31,3.96-2.51,5.04-3.62,1.08-1.11,1.95-2.3,2.61-3.59.66-1.29,1.45-3.49,2.35-6.59-1.05-.19-1.94-.38-2.69-.56-.75-.18-1.53-.46-2.34-.82-.81-.37-1.53-1.08-2.17-2.13-.64-1.05-.88-2.38-.72-3.97.16-1.59.84-3.15,2.04-4.68s2.61-2.42,4.23-2.69ZM134.97,381.43c-.47.4-.74.77-.82,1.1-.08.33-.11.69-.1,1.07,0,.38.11.7.3.94s.62.51,1.28.81c.66.3,1.42.47,2.27.52.05-.71.07-1.46.07-2.22s-.13-1.35-.37-1.75-.61-.68-1.14-.84c-.52-.16-1.02-.03-1.49.37Z"/>
    <path class="cls-3" d="M154.71,377.51c.69-.03,1.39.05,2.09.26.71.21,1.36.57,1.97,1.08.61.51,1.11,1.06,1.49,1.63.38.57.73,1.28,1.05,2.12.31.84.51,1.67.6,2.51.82.5,1.69.74,2.61.71l1.18-.03v5.25h-1.83c-1.34-.04-2.54-.39-3.61-1.07-1.5,1.31-2.81,2.03-3.93,2.18-1.12.15-2.06.17-2.8.08-.74-.1-1.41-.36-2.01-.8-.6-.43-1.14-.91-1.61-1.41-1.69.75-3.57,1.09-5.65,1.02l-.92.03-.23-.03.03-5.2c.33,0,.75,0,1.25.01.5,0,.93.02,1.27.04s.88-.04,1.61-.16,1.19-.6,1.38-1.42c.19-.83.51-1.79.97-2.88.45-1.09,1.24-2.01,2.37-2.76s2.03-1.14,2.72-1.18ZM154.23,382.63c-.35,0-.63.05-.85.14-.22.1-.39.25-.51.47s-.19.53-.21.93c-.02.4.06.85.22,1.36.17.51.59.9,1.27,1.19.68.29,1.27.37,1.78.25.5-.12.84-.26.99-.41.16-.15.28-.41.37-.77-.4-1.32-.92-2.18-1.57-2.58-.65-.39-1.14-.59-1.49-.59Z"/>
    <path class="cls-3" d="M167.31,355.31c.95-.53,1.66-.72,2.14-.58.48.15.95.52,1.41,1.11.46.59.9,1.52,1.32,2.78.42,1.26.69,2.46.81,3.58.12,1.12.31,4.06.58,8.79.26,4.74.49,7.93.69,9.58s.3,2.96.31,3.95c0,.99-.15,1.87-.47,2.65-.32.78-1,1.52-2.03,2.21-1.03.69-2.17,1.15-3.44,1.37s-2.42.32-3.46.29v-5.23c.56,0,.98,0,1.25.01.28,0,.91-.03,1.89-.12.98-.09,1.62-.41,1.92-.97s.41-1.35.35-2.37c-.06-1.02-.13-2.2-.22-3.55-.09-1.35-.15-3.72-.18-7.12-.04-3.4-.23-5.75-.58-7.06s-1-2.24-1.95-2.8c-.95-.56-1.49-1.18-1.61-1.86s-.18-1.5-.18-2.46.47-1.7,1.42-2.23Z"/>
    <path class="cls-3" d="M179.63,354.25c.58,0,1.37.35,2.38,1.04,1.01.7,1.52,1.64,1.52,2.84v2.38c0,.39.03.83.09,1.32.06.49.09,1.15.09,1.99v1.78c0,.35.01.69.04,1.03.03.34.05.69.08,1.06.03.37.05,1.12.07,2.26.02,1.14.02,2.75,0,4.81s0,3.45.07,4.16c.06.71.09,1.26.09,1.66s.08,1,.25,1.8c.17.8.59,1.75,1.27,2.83.68,1.09,1.05,1.83,1.1,2.22.05.39.08.72.08.98s-.08.77-.23,1.52c-.16.75-.61,1.12-1.35,1.12s-1.68-.27-2.81-.81c-1.13-.54-1.7-1-1.7-1.38v-2.42c0-.36.11-.87.34-1.53s.3-2.19.22-4.57c-.08-2.39-.12-4-.13-4.85,0-.84,0-1.51,0-2,0-.49,0-1-.04-1.54s-.05-1.78-.05-3.71-.07-3.43-.22-4.48c-.15-1.05-.46-1.74-.93-2.05-.47-.31-.96-.87-1.46-1.67-.51-.8-.76-1.33-.76-1.58s.19-1.01.58-2.29c.38-1.27.86-1.91,1.44-1.91Z"/>
    <path class="cls-3" d="M193.47,404.51c1.89-1.03,3.59-2.17,5.11-3.42,1.52-1.25,2.69-2.55,3.52-3.89s1.35-2.58,1.57-3.72c.22-1.14.33-2.08.35-2.81-.64.4-1.19.68-1.65.85-.45.17-1.06.25-1.82.25s-1.19,0-1.31-.01-.72-.17-1.83-.48c-1.11-.31-1.96-.88-2.56-1.71-.6-.83-.99-1.64-1.16-2.44-.17-.8-.13-1.69.13-2.65.26-.97.62-1.86,1.08-2.68s1.19-1.77,2.18-2.85,2.21-1.7,3.65-1.87c1.44-.17,2.62.14,3.55.9.93.77,1.69,1.68,2.26,2.75.58,1.06,1.02,2.06,1.35,2.99.32.93.55,2.19.68,3.76.13,1.58.15,2.98.05,4.22-.1,1.24-.24,2.26-.42,3.07s-.74,2.08-1.66,3.82c-.92,1.73-2.55,3.55-4.89,5.46-2.34,1.91-4.92,3.48-7.76,4.71-2.84,1.23-5.33,1.96-7.48,2.21-2.14.24-3.57.38-4.27.42-.71.04-1.61.01-2.71-.07-1.1-.08-2-.33-2.71-.77-.71-.44-1-.99-.88-1.67s1.49-1,4.1-.97c2.61.03,5.04-.26,7.29-.89,2.25-.63,4.32-1.46,6.21-2.48ZM198.86,383.74c-.32.51-.51.98-.56,1.41-.05.43.05.77.31,1.02.26.25.56.46.9.63.34.17.79.23,1.35.2s.95-.13,1.18-.27c.23-.15.38-.3.44-.44.07-.15.09-.49.05-1.02-.04-.53-.33-1.06-.88-1.58-.55-.52-1.07-.77-1.57-.75-.5.03-.91.3-1.23.81Z"/>
    <path class="cls-3" d="M248.91,362.81c1.07.3,2.16.87,3.27,1.69,1.11.82,2.2,1.76,3.27,2.84,1.07,1.07,2.12,2.38,3.15,3.92,1.03,1.54,1.96,3.11,2.8,4.7.84,1.59,1.37,2.8,1.61,3.61.24.81.38,1.62.44,2.43.06.81.05,1.78-.04,2.92,1.53.64,2.71.93,3.53.86v5.28c-1.45.02-2.43-.03-2.94-.14s-1.29-.46-2.34-1.03c-.33.24-.67.44-1.02.6-.35.16-1.35.25-3.02.29s-2.62-.27-2.88-.9c-.25-.64-.58-1.07-.97-1.29-.39-.23-2.19-.3-5.4-.23s-5.51.13-6.93.18c-1.41.05-2.97.08-4.68.08s-3.28.08-4.73.24c-.21.82-.57,1.7-1.08,2.63s-1.41,2.33-2.69,4.19c-1.28,1.86-3.13,4.06-5.54,6.6s-4.54,4.49-6.36,5.85c-1.83,1.37-3.42,2.42-4.77,3.16-1.35.74-2.42,1.3-3.21,1.69-.79.38-2.24.94-4.34,1.66s-3.34,1.13-3.72,1.23c-.38.1-.96.22-1.73.38-.77.16-1.79.29-3.08.39-1.29.1-2.23.16-2.82.16s-1.62-.08-3.07-.24c-1.45-.16-2.88-.37-4.26-.65-1.39-.28-3.04-.69-4.95-1.24-1.92-.55-3.8-1.29-5.65-2.23-1.85-.94-3.28-1.78-4.3-2.52-1.02-.74-1.89-1.41-2.61-2-.72-.59-1.5-1.25-2.33-1.99-.83-.73-1.81-1.8-2.94-3.21-1.13-1.41-1.99-2.64-2.56-3.69-.57-1.04-.86-1.69-.85-1.92s.04-.45.09-.64c.05-.19.18-.37.39-.54.21-.17.6-.25,1.18-.25s1.34.73,2.3,2.2c.96,1.46,2.17,2.88,3.63,4.26,1.46,1.38,2.94,2.6,4.43,3.67,1.49,1.07,2.77,1.92,3.84,2.54s2.42,1.21,4.04,1.78,3.33,1.08,5.14,1.54,3.79.81,5.95,1.03,4.03.26,5.62.09c1.59-.17,3.2-.45,4.83-.86,1.64-.41,4.09-1.38,7.36-2.91,3.27-1.53,6.61-4,10.04-7.4,3.42-3.4,5.71-5.88,6.85-7.45,1.14-1.57,1.8-2.67,1.97-3.32.17-.64.2-1.21.07-1.7-.13-.49-.34-.72-.63-.69-.29.03-.48.06-.56.1-.09.04-.36-.04-.82-.26s-.88-.52-1.27-.92c-.38-.39-.66-1.1-.82-2.12s-.16-2.02.01-2.99c.17-.98.69-2.19,1.56-3.65.86-1.45,2.04-2.95,3.53-4.48,1.49-1.53,2.8-2.74,3.93-3.63s2.37-1.85,3.71-2.89c1.34-1.04,2.79-2.01,4.35-2.91s2.87-1.52,3.92-1.84c1.05-.32,1.9-.48,2.55-.48s1.5.15,2.58.46ZM226.44,381.68c-.21.44-.22.82-.04,1.14.18.31.45.44.81.39.36-.05.8-.09,1.33-.1.53-.02,1.78-.08,3.74-.18,1.96-.11,4.5-.21,7.63-.31,3.13-.1,5.35-.16,6.68-.16s3.7-.03,7.13-.08c3.43-.05,5.17-.42,5.2-1.1.04-.68-.14-1.37-.52-2.06-.38-.7-.9-1.56-1.54-2.59s-1.4-2.07-2.27-3.14c-.87-1.06-1.61-1.88-2.22-2.44-.61-.57-1.36-1.21-2.26-1.93-.9-.72-1.77-1.22-2.63-1.5-.85-.28-1.81-.3-2.88-.08-1.06.23-2.16.67-3.28,1.32s-2.17,1.32-3.15,1.99c-.98.67-2.22,1.56-3.74,2.65s-2.88,2.21-4.09,3.33c-1.21,1.12-2.11,2.1-2.71,2.94-.59.84-.99,1.48-1.2,1.92ZM242.68,354.66c0-.61.27-1.19.82-1.74s1.27-.82,2.16-.82c.94,0,1.61.21,2,.64s.59,1.07.59,1.92c0,.75-.26,1.44-.78,2.06-.52.63-1.26.94-2.22.94-.5,0-1.06-.32-1.66-.97-.6-.64-.9-1.32-.9-2.04Z"/>
    <path class="cls-3" d="M269.2,356.96c-.52.33-.78.71-.78,1.12,0,.09,0,.18.03.29.12.38.35.67.68.88s.7.3,1.1.3c.21,0,.69-.16,1.44-.47.68-.26,1.11-.39,1.28-.39h.05c.51.07.79.33.86.8.07.46.1.98.1,1.55-.68.38-2.13,1.05-4.37,2.01-2.02.89-3.15,1.33-3.4,1.33-.04,0-.05,0-.05-.03-.17-.28-.35-.6-.52-.98-.17-.38-.26-.67-.26-.9,0-.1.05-.28.16-.54s.34-.44.69-.56c.36-.12.69-.23,1.01-.34-.71-.54-1.14-1.22-1.28-2.04-.1-.31-.16-.64-.16-.97,0-.78.27-1.52.8-2.22s1.08-1.13,1.66-1.31c.57-.17,1.04-.26,1.38-.26.75,0,1.41.13,1.99.41s.86.6.86.98c0,.51-.17.89-.5,1.15-.23.17-.47.26-.73.26-.16,0-.32-.03-.5-.08-.52-.1-.8-.16-.84-.16-.19,0-.43.05-.71.16ZM272.91,367.81h.52c1.22,0,2.82,1.94,4.81,5.83.35.96.52,2.15.52,3.58,0,5.3-1.85,9.31-5.54,12.05-1.71,1.29-3.49,1.9-5.36,1.83h-1.12v-5.28c1.27,0,2.67-.15,4.18-.44,1.69-.5,2.74-1.15,3.14-1.93.7-.96,1.04-2.26,1.04-3.89,0-2.18-1.43-4.15-4.29-5.91-.42-.66-.63-1.31-.63-1.93.66-2.6,1.57-3.89,2.72-3.89Z"/>
    <path class="cls-3" d="M283.89,354.25c.58,0,1.37.35,2.38,1.04,1.01.7,1.52,1.64,1.52,2.84v2.38c0,.39.03.83.09,1.32.06.49.09,1.15.09,1.99v1.78c0,.35.01.69.04,1.03.03.34.05.69.08,1.06.03.37.05,1.12.07,2.26.02,1.14.02,2.75,0,4.81s0,3.45.07,4.16c.06.71.09,1.26.09,1.66s.08,1,.25,1.8c.17.8.59,1.75,1.27,2.83.68,1.09,1.05,1.83,1.1,2.22.05.39.08.72.08.98s-.08.77-.23,1.52c-.16.75-.61,1.12-1.35,1.12s-1.68-.27-2.81-.81c-1.13-.54-1.7-1-1.7-1.38v-2.42c0-.36.11-.87.34-1.53s.3-2.19.22-4.57c-.08-2.39-.12-4-.13-4.85,0-.84,0-1.51,0-2,0-.49,0-1-.04-1.54s-.05-1.78-.05-3.71-.07-3.43-.22-4.48c-.15-1.05-.46-1.74-.93-2.05-.47-.31-.96-.87-1.46-1.67-.51-.8-.76-1.33-.76-1.58s.19-1.01.58-2.29c.38-1.27.86-1.91,1.44-1.91Z"/>
    <path class="cls-3" d="M298.38,379.76c.29-.07.54-.08.77-.03.23.05.36.17.39.37.04.19.02.52-.05.99-.07.47.09,1.33.48,2.57.39,1.25,1.08,1.92,2.08,2.01s2.15.14,3.48.14v5.23c-1.86.02-3.04,0-3.54-.04-.5-.04-.85.08-1.05.38-.2.3-.37.92-.51,1.86-.14.94-.46,1.91-.95,2.91-.5,1-.96,1.88-1.4,2.63-.44.75-.8,1.32-1.1,1.72-.3.4-1.37,1.52-3.21,3.35-1.85,1.83-3.24,2.98-4.17,3.45-.93.47-1.69.87-2.27,1.2-.58.33-1.61.71-3.08,1.12-1.47.42-2.26.67-2.37.75-.1.08-.99.19-2.65.33s-3.07.17-4.22.1c-1.15-.07-2.03-.15-2.64-.25-.61-.1-1.59-.34-2.94-.72-1.35-.38-2.86-.92-4.53-1.59-1.67-.68-2.71-1.25-3.11-1.71-.4-.46-.61-.83-.64-1.1-.03-.27-.01-.61.04-1.02.05-.41.27-.66.67-.76.39-.1.81-.11,1.25-.05.44.06,1.13.37,2.06.94.93.57,1.74.95,2.43,1.15s1.05.3,1.1.31c.04,0,.44.12,1.2.33s1.86.42,3.32.63,2.68.29,3.69.25,2-.11,2.98-.2c.98-.09,2.1-.38,3.34-.86,1.25-.49,2.21-.88,2.9-1.19.69-.31,1.55-.82,2.59-1.54,1.04-.72,1.92-1.42,2.64-2.08s1.37-1.32,1.93-1.96c.57-.65,1.04-1.31,1.41-2,.37-.69.69-1.34.94-1.95.25-.61.58-1.69.97-3.23.39-1.54.41-2.64.04-3.31-.37-.66-.61-1.51-.75-2.54-.13-1.03-.17-1.71-.12-2.04.05-.33.17-.69.37-1.07.19-.38.36-.81.5-1.28.14-.47.39-.94.76-1.41.37-.47.69-.74.98-.81Z"/>
    <path class="cls-3" d="M311.71,366.65c1.12-.2,2.35.38,3.69,1.75,1.33,1.37,2.12,2.38,2.35,3.02s.35,1.2.35,1.66-.15,1.29-.44,2.47c-.3,1.19-.59,2.12-.89,2.8-.3.68-.91,1.96-1.83,3.84.68,1.06,1.48,1.87,2.4,2.43.92.56,2.07.96,3.42,1.2l.05,5.28c-1.15-.02-2.3-.29-3.44-.81-1.14-.52-2.09-1.07-2.84-1.63-.75-.57-1.52-1.26-2.3-2.08-.45.71-1.05,1.42-1.79,2.1s-1.55,1.24-2.42,1.66c-.87.42-1.97.66-3.29.73l.03-5.23c1.18.02,2.04-.08,2.56-.29s.99-.46,1.4-.76c.41-.3.77-.68,1.08-1.15-.4-.54-1.11-1.57-2.13-3.1-1.02-1.52-1.56-2.69-1.63-3.49-.07-.8-.02-1.65.16-2.54s.47-1.79.89-2.69,1.01-1.95,1.78-3.12c.77-1.18,1.71-1.86,2.84-2.07ZM310.33,373.33c-.27.63-.39,1.16-.37,1.59s.32,1.08.88,1.92c.56.85,1.2,1.73,1.93,2.65,1.15-1.66,1.72-2.83,1.72-3.52s-.31-1.38-.93-2.06-1.12-1.15-1.49-1.4c-.38-.24-.69-.33-.95-.25-.26.08-.53.43-.8,1.06ZM316.64,360.31v1.61c0,.48-.28.96-.84,1.44-.56.48-1.03.72-1.42.72h-2.27c-1.12,0-1.69-.42-1.69-1.25v-2.06c0-.54.34-1.18,1.02-1.92.68-.74,1.31-1.11,1.88-1.11s.99.06,1.25.2c.26.13.67.41,1.23.85s.84.95.84,1.54Z"/>
    <path class="cls-3" d="M322.06,355.31c.95-.53,1.66-.72,2.14-.58.48.15.95.52,1.41,1.11.46.59.9,1.52,1.32,2.78.42,1.26.69,2.46.81,3.58.12,1.12.31,4.06.58,8.79.26,4.74.49,7.93.69,9.58s.3,2.96.31,3.95c0,.99-.15,1.87-.47,2.65-.32.78-1,1.52-2.03,2.21-1.03.69-2.17,1.15-3.44,1.37s-2.42.32-3.46.29v-5.23c.56,0,.98,0,1.25.01.28,0,.91-.03,1.89-.12.98-.09,1.62-.41,1.92-.97s.41-1.35.35-2.37c-.06-1.02-.13-2.2-.22-3.55-.09-1.35-.15-3.72-.18-7.12-.04-3.4-.23-5.75-.58-7.06s-1-2.24-1.95-2.8c-.95-.56-1.49-1.18-1.61-1.86s-.18-1.5-.18-2.46.47-1.7,1.42-2.23Z"/>
    <path class="cls-3" d="M334.39,354.25c.58,0,1.37.35,2.38,1.04,1.01.7,1.52,1.64,1.52,2.84v2.38c0,.39.03.83.09,1.32.06.49.09,1.15.09,1.99v1.78c0,.35.01.69.04,1.03.03.34.05.69.08,1.06.03.37.05,1.12.07,2.26.02,1.14.02,2.75,0,4.81s0,3.45.07,4.16c.06.71.09,1.26.09,1.66s.08,1,.25,1.8c.17.8.59,1.75,1.27,2.83.68,1.09,1.05,1.83,1.1,2.22.05.39.08.72.08.98s-.08.77-.23,1.52c-.16.75-.61,1.12-1.35,1.12s-1.68-.27-2.81-.81c-1.13-.54-1.7-1-1.7-1.38v-2.42c0-.36.11-.87.34-1.53s.3-2.19.22-4.57c-.08-2.39-.12-4-.13-4.85,0-.84,0-1.51,0-2,0-.49,0-1-.04-1.54s-.05-1.78-.05-3.71-.07-3.43-.22-4.48c-.15-1.05-.46-1.74-.93-2.05-.47-.31-.96-.87-1.46-1.67-.51-.8-.76-1.33-.76-1.58s.19-1.01.58-2.29c.38-1.27.86-1.91,1.44-1.91Z"/>
    <path class="cls-3" d="M369.32,357.61c2.17-.53,3.98-.83,5.44-.89,1.46-.06,3.24.15,5.35.63,2.11.48,3.82,1.33,5.12,2.56s1.08,1.75-.68,1.56-3-.44-3.71-.76c-.71-.31-1.99-.58-3.82-.81-2.67-.26-5.6.25-8.81,1.54-3.97,1.81-6.25,4.1-6.82,6.87s-.65,4.86-.24,6.27,1.19,2.87,2.33,4.36c1.13,1.5,3.23,3.02,6.3,4.57,2.26,1.08,4.06,1.62,5.38,1.62,3.57,0,5.36-.49,5.36-1.46s.67-1.83,2.03-2.56c1.35-.73,2.85-1.12,4.51-1.15,1.62,0,2.73.75,3.32,2.26.59,1.51.1,3.17-1.48,4.98-1.58,1.81-4.17,2.7-7.78,2.67h-3.82c-4.97-.28-8.83-1.37-11.6-3.27-.87-.44-2.13-1.38-3.79-2.84-1.66-1.45-2.99-3.3-4.01-5.54-1.02-2.24-1.36-4.64-1.03-7.2s.98-4.63,1.95-6.19c.97-1.57,2.42-3.03,4.35-4.39,1.93-1.36,3.99-2.3,6.16-2.84ZM383.08,394.55h.31c2.21,0,3.32.81,3.32,2.43-1.2,2.7-2.64,4.05-4.31,4.05-2.2-.33-3.29-1.59-3.29-3.79.89-1.79,2.21-2.69,3.97-2.69Z"/>
    <path class="cls-3" d="M394.46,353.89c.3-.1.73.02,1.28.35s.9.61,1.04.82.3.44.44.67c.15.23.26.53.33.92.07.38.13.6.2.65.06.05.27.56.64,1.53s.7,2.36,1.01,4.17c.3,1.81.49,3.09.55,3.83.06.74.12,1.37.18,1.88.06.51.12,1.14.18,1.88.06.74.06,2.11,0,4.1-.06,2-.07,3.28-.03,3.86.04.58.09,1.14.13,1.69.04.55.29,1.18.75,1.9.45.71.9,1.32,1.33,1.8.44.49,1.44.93,3.02,1.33,1.58.4,2.73.6,3.46.6l.03,5.2h-2.43c-1.13,0-2.54-.54-4.21-1.61s-2.64-1.61-2.89-1.61-.74.26-1.46.77c-.72.51-1.24.79-1.54.84s-.71.07-1.23.07-.85-.18-1.01-.55c-.16-.37-.21-1.04-.14-2.01.06-.98.18-1.74.37-2.3.18-.56.7-1.37,1.56-2.44.85-1.07,1.28-1.68,1.28-1.82s-.03-.35-.09-.63c-.06-.28-.03-.9.09-1.87.12-.97.06-2.73-.18-5.29-.24-2.56-.38-4-.42-4.31-.04-.31-.25-1.08-.64-2.29-.39-1.21-.8-2.19-1.23-2.94s-.98-1.43-1.65-2.05c-.67-.62-1.01-1.2-1.01-1.74v-1.63c0-.55.3-1.29.92-2.22.61-.93,1.07-1.45,1.37-1.54Z"/>
    <path class="cls-3" d="M431.17,374.27h1.01c.62,0,1.24.44,1.87,1.33s1.1,1.83,1.41,2.82.47,1.59.47,1.78v1.52c0,.82-.09,1.7-.26,2.64.4.42.96.76,1.69,1.03.72.27,1.75.41,3.1.43v5.23c-1.52,0-2.89-.24-4.12-.71-1.23-.47-2.24-.99-3.04-1.57-.16.09-.71.41-1.66.98-.95.57-1.56.9-1.83,1.01-.27.1-.64.1-1.12,0s-.99-.36-1.53-.77c-.54-.41-1.3-.95-2.27-1.63-.75.7-1.55,1.28-2.4,1.74-.85.46-1.54.73-2.05.8-.51.07-1.42-.04-2.72-.34-1.3-.3-2.22-.71-2.76-1.24-.54-.53-.91-.92-1.1-1.16-1.74,1.76-3.41,2.72-4.99,2.88l-1.65.03.03-5.25c1.13.05,2.03-.09,2.71-.43.67-.34,1.28-.82,1.82-1.45.54-.63.92-1.23,1.14-1.8s.5-1.05.85-1.42c.35-.37.58-.56.69-.56h.71c.36,0,.76.44,1.21,1.32.45.88.86,1.46,1.23,1.74.37.28.93.58,1.69.89s1.33.45,1.71.42c.38-.03.82-.31,1.31-.84.49-.52.78-.99.86-1.41.09-.42.36-.94.82-1.57.46-.63.81-.98,1.04-1.05.24-.07.48-.07.73,0,.25.07.42.56.51,1.46.09.91.51,1.58,1.27,2.03.76.44,1.39.76,1.89.94.5.18,1.02.1,1.55-.24s.79-.63.78-.88c0-.24-.11-.67-.3-1.27-.19-.6-.56-.98-1.11-1.14s-.88-.46-.99-.9-.17-1.13-.17-2.05.32-1.71.95-2.35c.64-.64.98-.97,1.03-.97Z"/>
    <path class="cls-3" d="M454.42,374.63c1.7,0,3.38.74,5.04,2.22,1.66,1.48,3.52,3.05,5.57,4.71,2.05,1.66,3.24,2.48,3.57,2.48h3.62c1.21,0,2.04.44,2.5,1.32.45.88.64,1.59.57,2.13s-.23,1.1-.5,1.69c-.26.58-.66,1.17-1.19,1.76s-1.1.89-1.7.89-1.39-.27-2.37-.8-1.89-1.01-2.76-1.42-1.75-.63-2.65-.63-1.94.03-3.1.09c-1.16.06-2.73.22-4.72.48-1.99.26-2.98.47-2.98.63s-.17.38-.5.68c-.33.3-1.15.32-2.44.07-1.3-.25-2.1-.49-2.39-.72-1.97.31-3.26.51-3.87.6-.61.09-1.39.15-2.35.2-.96.04-1.7.07-2.22.07v-5.28h1.71c.57,0,1.34-.05,2.33-.16.98-.1,1.79-.29,2.42-.55-.07-1.53.02-2.51.26-2.93.24-.42.51-1.13.8-2.14.29-1.01.79-1.96,1.52-2.84.72-.88,1.45-1.52,2.18-1.93.73-.41,1.95-.61,3.65-.61ZM451.09,379.99c-.73.28-1.2.78-1.41,1.49-.21.71-.4,1.24-.58,1.57-.17.33-.09.96.26,1.88,1.15.14,2.15.14,3.01,0,.85-.14,2.2-.35,4.02-.63,1.83-.28,2.75-.48,2.75-.6s-.08-.3-.25-.54c-.17-.24-.71-.74-1.65-1.5-.93-.77-1.8-1.31-2.6-1.63-.8-.32-1.41-.48-1.83-.47-.42,0-.99.15-1.73.43Z"/>
  </g>
  <g>
    <path class="cls-2" d="M157.01,443.56v1.59c0,.47-.09.93-.27,1.39s-.47.86-.88,1.21c-.4.35-.94.63-1.59.85s-1.45.32-2.39.32h-6.32c-2.11,0-3.71-.53-4.81-1.58-1.1-1.05-1.65-2.5-1.65-4.33,0-1.06.18-2.08.53-3.06.35-.98.76-1.8,1.23-2.47.07-.13.2-.13.38-.03l1.49.81c.14.09.17.21.08.35-.32.5-.63,1.13-.93,1.86-.3.74-.45,1.51-.45,2.32,0,.74.12,1.36.36,1.88.24.51.57.92.99,1.23.41.31.89.53,1.42.66.53.13,1.09.2,1.69.2h5.97c1.08,0,1.83-.16,2.25-.49.42-.32.63-.71.63-1.16v-1.57h-2.89c-.79,0-1.51-.1-2.15-.31-.64-.21-1.18-.53-1.63-.97s-.79-1.02-1.03-1.74c-.23-.72-.35-1.59-.35-2.62s.13-1.91.41-2.66c.27-.75.64-1.36,1.11-1.84.47-.48,1.02-.83,1.65-1.05.63-.22,1.3-.34,2-.34,1.6,0,2.86.46,3.78,1.39.92.93,1.38,2.43,1.38,4.5v3.54h1.89c.36,0,.63.08.81.23.18.15.27.41.27.77,0,.47-.09.77-.26.91-.17.13-.45.2-.82.2h-1.89ZM149.23,429.84c-.18,0-.27-.09-.27-.27v-1.97c0-.18.09-.27.27-.27h1.84c.18,0,.27.09.27.27v1.97c0,.18-.09.27-.27.27h-1.84ZM151.85,434.14c-.92,0-1.63.33-2.13,1-.5.67-.76,1.59-.76,2.78,0,1.3.26,2.21.77,2.74.51.53,1.27.8,2.28.8h2.73v-3.54c0-1.19-.23-2.12-.69-2.78s-1.19-1-2.2-1ZM152.53,429.84c-.18,0-.27-.09-.27-.27v-1.97c0-.18.09-.27.27-.27h1.84c.18,0,.27.09.27.27v1.97c0,.18-.09.27-.27.27h-1.84Z"/>
    <path class="cls-2" d="M158.9,443.56c-.36,0-.63-.06-.81-.19-.18-.12-.27-.38-.27-.76,0-.45.08-.76.26-.92.17-.16.45-.24.82-.24h1.84c.45,0,.78-.1.99-.31.21-.21.31-.58.31-1.12v-7.24c0-.18.09-.27.27-.27h1.73c.18,0,.27.09.27.27v6.83c0,.61.22,1.07.66,1.38.44.31,1.03.46,1.77.46h.32c.36,0,.63.08.81.23.18.15.27.41.27.77,0,.47-.09.77-.26.91-.17.13-.45.2-.82.2h-.59c-.58,0-1.08-.12-1.51-.35-.43-.23-.77-.58-1-1.05-.45.94-1.39,1.4-2.81,1.4h-2.24ZM160.28,448.58c-.18,0-.27-.09-.27-.27v-1.97c0-.18.09-.27.27-.27h1.84c.18,0,.27.09.27.27v1.97c0,.18-.09.27-.27.27h-1.84ZM163.57,448.58c-.18,0-.27-.09-.27-.27v-1.97c0-.18.09-.27.27-.27h1.84c.18,0,.27.09.27.27v1.97c0,.18-.09.27-.27.27h-1.84Z"/>
    <path class="cls-2" d="M167.43,443.56c-.38,0-.65-.07-.82-.2-.17-.14-.26-.44-.26-.91,0-.36.09-.62.27-.77.18-.15.45-.23.81-.23h3.05c-.52-.88-.78-2.06-.78-3.54,0-1.03.13-1.91.39-2.66.26-.75.63-1.36,1.09-1.84.47-.48,1.01-.83,1.63-1.05.62-.22,1.3-.34,2.04-.34,1.6,0,2.86.46,3.78,1.39.92.93,1.38,2.43,1.38,4.5,0,1.03-.12,1.9-.36,2.62-.24.72-.58,1.3-1.03,1.74s-.98.76-1.62.97-1.35.31-2.15.31h-7.42ZM172.24,429.84c-.18,0-.27-.09-.27-.27v-1.97c0-.18.09-.27.27-.27h1.84c.18,0,.27.09.27.27v1.97c0,.18-.09.27-.27.27h-1.84ZM174.86,434.14c-.95,0-1.67.32-2.16.97-.49.65-.73,1.53-.73,2.65,0,1.33.23,2.28.69,2.85.46.57,1.19.85,2.2.85s1.74-.26,2.2-.8.69-1.44.69-2.74c0-1.19-.23-2.12-.69-2.78s-1.19-1-2.2-1ZM175.53,429.84c-.18,0-.27-.09-.27-.27v-1.97c0-.18.09-.27.27-.27h1.84c.18,0,.27.09.27.27v1.97c0,.18-.09.27-.27.27h-1.84Z"/>
    <path class="cls-2" d="M193.35,439.62c0,.61.22,1.07.66,1.38.44.31,1.03.46,1.77.46h.3c.36,0,.63.08.81.23.18.15.27.41.27.77,0,.47-.09.77-.26.91-.17.13-.45.2-.82.2h-.57c-.61,0-1.16-.13-1.65-.39-.49-.26-.83-.65-1.03-1.17-.31.59-.74,1-1.28,1.23-.55.23-1.25.34-2.11.34h-5.99c-.18,0-.27-.09-.27-.27v-1.57c0-.18.09-.27.27-.27h5.16c.5,0,.91-.04,1.21-.12.31-.08.54-.22.7-.41.16-.19.27-.44.32-.74.05-.31.08-.69.08-1.16v-2.16c0-1.82-1.03-2.73-3.08-2.73h-3.13c-.18,0-.27-.09-.27-.27v-1.57c0-.18.09-.27.27-.27h3.97c1.37,0,2.49.39,3.36,1.16.87.77,1.31,1.99,1.31,3.65v2.78Z"/>
    <path class="cls-2" d="M196.05,443.56c-.36,0-.63-.06-.81-.19-.18-.12-.27-.38-.27-.76,0-.45.09-.76.26-.92s.45-.24.82-.24h1.7c.45,0,.78-.1.99-.31s.31-.58.31-1.12v-14.55c0-.18.09-.27.27-.27h1.73c.18,0,.27.09.27.27v14.69c0,1.17-.24,2.03-.73,2.58s-1.3.82-2.43.82h-2.11Z"/>
    <path class="cls-2" d="M207.37,443.29c0,.18-.09.27-.27.27h-1.73c-.18,0-.27-.09-.27-.27v-17.82c0-.18.09-.27.27-.27h1.73c.18,0,.27.09.27.27v17.82Z"/>
    <path class="cls-2" d="M227.62,439.54c.58.22,1.13.44,1.67.66.54.23,1.07.43,1.58.62.51.19,1.02.34,1.53.46s1.02.17,1.54.17h2.19c.36,0,.63.06.81.19.18.13.27.38.27.76,0,.45-.09.76-.26.92s-.45.24-.83.24h-1.93c.09.14.2.38.32.72.12.33.19.7.19,1.09,0,.43-.09.86-.26,1.28-.17.42-.45.8-.85,1.15-.4.34-.92.62-1.56.82-.65.21-1.44.31-2.37.31h-6.31c-2.1,0-3.7-.53-4.8-1.58-1.1-1.05-1.64-2.5-1.64-4.33,0-1.06.18-2.08.53-3.06.35-.98.76-1.8,1.23-2.47.07-.13.2-.13.38-.03l1.49.81c.14.09.17.21.08.35-.32.5-.63,1.13-.93,1.86-.3.74-.45,1.51-.45,2.32,0,.74.12,1.36.36,1.88.24.51.57.92.99,1.23.41.31.89.53,1.42.66.53.13,1.09.2,1.69.2h5.97c1.08,0,1.83-.16,2.25-.49.42-.32.63-.71.63-1.16,0-.4-.12-.74-.36-1.03s-.6-.55-1.08-.8c-.48-.24-1.07-.49-1.78-.74s-1.53-.55-2.44-.89c-.16-.05-.22-.16-.16-.32l.59-1.62c.05-.18.16-.24.32-.19ZM223.19,453.6c-.18,0-.27-.09-.27-.27v-1.97c0-.18.09-.27.27-.27h1.84c.18,0,.27.09.27.27v1.97c0,.18-.09.27-.27.27h-1.84ZM226.48,453.6c-.18,0-.27-.09-.27-.27v-1.97c0-.18.09-.27.27-.27h1.84c.18,0,.27.09.27.27v1.97c0,.18-.09.27-.27.27h-1.84Z"/>
    <path class="cls-2" d="M248.57,441.45c.18,0,.27.09.27.27v1.57c0,.18-.09.27-.27.27h-12.45c-.72,0-1.08-.36-1.08-1.08,0-.45.09-.73.26-.85.17-.12.45-.18.82-.18h3.08c-.42-.41-.78-.94-1.07-1.57-.29-.63-.44-1.39-.44-2.27,0-.56.08-1.17.25-1.82.16-.66.46-1.26.9-1.82.44-.56,1.03-1.02,1.78-1.39.75-.37,1.71-.55,2.88-.55,1.06,0,1.98.19,2.75.58.77.39,1.39.92,1.86,1.61.09.14.06.27-.08.38l-1.19.97c-.14.11-.27.1-.38-.03-.81-.94-1.83-1.4-3.05-1.4-1.12,0-1.94.33-2.48.99s-.81,1.48-.81,2.47c0,.67.11,1.23.32,1.7.22.47.46.85.74,1.16.28.31.56.54.85.69.29.15.51.26.67.31h5.86Z"/>
    <path class="cls-2" d="M250.32,448.93c-.18,0-.27-.09-.27-.27v-1.57c0-.18.09-.27.27-.27h.62c1.46,0,2.19-.76,2.19-2.29v-11.75c0-.18.09-.27.27-.27h1.73c.18,0,.27.09.27.27v6.83c0,.61.22,1.07.66,1.38.44.31,1.03.46,1.77.46h.3c.36,0,.63.08.81.23.18.15.27.41.27.77,0,.47-.09.77-.26.91-.17.13-.45.2-.82.2h-.57c-.94,0-1.66-.29-2.16-.86v1.78c0,1.46-.37,2.57-1.11,3.32-.74.76-1.82,1.13-3.24,1.13h-.73Z"/>
    <path class="cls-2" d="M266.55,443.56c-.58,0-1.08-.12-1.51-.35-.43-.23-.77-.58-1-1.05-.45.94-1.39,1.4-2.81,1.4h-2.92c-.36,0-.63-.06-.81-.19-.18-.12-.27-.38-.27-.76,0-.45.08-.76.26-.92.17-.16.45-.24.82-.24h2.51c.45,0,.78-.1.99-.31s.31-.58.31-1.12v-4.91c0-.18.09-.27.27-.27h1.73c.18,0,.27.09.27.27v4.51c0,.61.22,1.07.65,1.38.43.31,1.01.46,1.73.46h.68c.45,0,.78-.1.99-.31.21-.21.31-.58.31-1.12v-4.91c0-.18.09-.27.27-.27h1.73c.18,0,.27.09.27.27v4.62c0,.58.22,1.01.67,1.3s1.04.43,1.75.43h.62c.45,0,.78-.1.99-.31s.31-.58.31-1.12v-7.24c0-.18.09-.27.27-.27h1.73c.18,0,.27.09.27.27v6.83c0,.61.22,1.07.66,1.38.44.31,1.03.46,1.77.46h.3c.36,0,.63.08.81.23.18.15.27.41.27.77,0,.47-.08.77-.26.91-.17.13-.45.2-.82.2h-.57c-.58,0-1.08-.12-1.51-.35-.43-.23-.76-.58-1-1.05-.45.94-1.39,1.4-2.81,1.4h-1.3c-.58,0-1.08-.12-1.51-.35-.43-.23-.77-.58-1-1.05-.45.94-1.39,1.4-2.81,1.4h-1.3ZM267.25,429.84c-.18,0-.27-.09-.27-.27v-1.97c0-.18.09-.27.27-.27h1.84c.18,0,.27.09.27.27v1.97c0,.18-.09.27-.27.27h-1.84ZM268.93,426.69c-.18,0-.27-.09-.27-.27v-1.97c0-.18.09-.27.27-.27h1.84c.18,0,.27.09.27.27v1.97c0,.18-.09.27-.27.27h-1.84ZM270.55,429.84c-.18,0-.27-.09-.27-.27v-1.97c0-.18.09-.27.27-.27h1.84c.18,0,.27.09.27.27v1.97c0,.18-.09.27-.27.27h-1.84Z"/>
    <path class="cls-2" d="M280.16,443.56c-.36,0-.63-.06-.81-.19-.18-.12-.27-.38-.27-.76,0-.45.09-.76.26-.92s.45-.24.82-.24h1.7c.45,0,.78-.1.99-.31s.31-.58.31-1.12v-14.55c0-.18.09-.27.27-.27h1.73c.18,0,.27.09.27.27v14.69c0,1.17-.24,2.03-.73,2.58s-1.3.82-2.43.82h-2.11Z"/>
    <path class="cls-2" d="M291.47,443.29c0,.18-.09.27-.27.27h-1.73c-.18,0-.27-.09-.27-.27v-17.82c0-.18.09-.27.27-.27h1.73c.18,0,.27.09.27.27v17.82Z"/>
    <path class="cls-2" d="M317.89,441.14c.21-.21.31-.58.31-1.12v-7.24c0-.18.09-.27.27-.27h1.73c.18,0,.27.09.27.27v7.37c0,1.17-.24,2.03-.73,2.58-.49.55-1.31.82-2.48.82h-12.99c-1.13,0-1.94-.27-2.43-.82s-.73-1.41-.73-2.58v-5.64c0-.18.09-.27.27-.27h1.73c.18,0,.27.09.27.27v5.51c0,.54.1.91.31,1.12s.54.31.99.31h12.2c.47,0,.81-.1,1.01-.31ZM308.26,431.44c-.18,0-.27-.09-.27-.27v-1.97c0-.18.09-.27.27-.27h1.84c.18,0,.27.09.27.27v1.97c0,.18-.09.27-.27.27h-1.84ZM309.94,428.28c-.18,0-.27-.09-.27-.27v-1.97c0-.18.09-.27.27-.27h1.84c.18,0,.27.09.27.27v1.97c0,.18-.09.27-.27.27h-1.84ZM311.56,431.44c-.18,0-.27-.09-.27-.27v-1.97c0-.18.09-.27.27-.27h1.84c.18,0,.27.09.27.27v1.97c0,.18-.09.27-.27.27h-1.84Z"/>
    <path class="cls-2" d="M326.17,443.29c0,.18-.09.27-.27.27h-1.73c-.18,0-.27-.09-.27-.27v-17.82c0-.18.09-.27.27-.27h1.73c.18,0,.27.09.27.27v17.82Z"/>
    <path class="cls-2" d="M328.33,448.93c-.18,0-.27-.09-.27-.27v-1.57c0-.18.09-.27.27-.27h.62c1.46,0,2.19-.76,2.19-2.29v-11.75c0-.18.09-.27.27-.27h1.73c.18,0,.27.09.27.27v6.83c0,.61.22,1.07.66,1.38.44.31,1.03.46,1.77.46h.3c.36,0,.63.08.81.23.18.15.27.41.27.77,0,.47-.09.77-.26.91-.17.13-.45.2-.82.2h-.57c-.94,0-1.66-.29-2.16-.86v1.78c0,1.46-.37,2.57-1.11,3.32-.74.76-1.82,1.13-3.24,1.13h-.73Z"/>
    <path class="cls-2" d="M336.32,443.56c-.36,0-.63-.06-.81-.19-.18-.12-.27-.38-.27-.76,0-.45.08-.76.26-.92.17-.16.45-.24.82-.24h1.84c.45,0,.78-.1.99-.31.21-.21.31-.58.31-1.12v-7.24c0-.18.09-.27.27-.27h1.73c.18,0,.27.09.27.27v6.83c0,.61.22,1.07.66,1.38.44.31,1.03.46,1.77.46h.32c.36,0,.63.08.81.23.18.15.27.41.27.77,0,.47-.09.77-.26.91-.17.13-.45.2-.82.2h-.59c-.58,0-1.08-.12-1.51-.35-.43-.23-.77-.58-1-1.05-.45.94-1.39,1.4-2.81,1.4h-2.24ZM337.69,448.58c-.18,0-.27-.09-.27-.27v-1.97c0-.18.09-.27.27-.27h1.84c.18,0,.27.09.27.27v1.97c0,.18-.09.27-.27.27h-1.84ZM340.99,448.58c-.18,0-.27-.09-.27-.27v-1.97c0-.18.09-.27.27-.27h1.84c.18,0,.27.09.27.27v1.97c0,.18-.09.27-.27.27h-1.84Z"/>
    <path class="cls-2" d="M352.63,443.75c-.85,0-1.59-.12-2.24-.37-.65-.24-1.2-.62-1.65-1.15-.38.58-.86.94-1.46,1.09-.59.15-1.14.23-1.65.23h-1.16c-.72,0-1.08-.36-1.08-1.08,0-.45.09-.73.26-.85.17-.12.45-.18.82-.18h1.35c.2,0,.4-.04.59-.12.2-.08.38-.22.54-.41.16-.19.29-.44.39-.76.1-.31.15-.71.15-1.17-.02-.18-.03-.35-.03-.53v-.55c0-2.07.46-3.57,1.38-4.5.92-.93,2.18-1.39,3.78-1.39s2.86.46,3.78,1.39c.92.93,1.38,2.43,1.38,4.5,0,.2,0,.4-.01.59,0,.2-.02.39-.04.57.02.92.2,1.54.55,1.88s.72.5,1.12.5h.78c.36,0,.63.08.81.23.18.15.27.41.27.77,0,.47-.09.77-.26.91-.17.13-.45.2-.82.2h-.59c-.25,0-.52-.01-.81-.04-.29-.03-.57-.09-.85-.18-.28-.09-.54-.22-.8-.39s-.47-.4-.65-.69c-.45.52-1,.9-1.65,1.13-.65.23-1.39.35-2.21.35ZM352.63,434.14c-1.01,0-1.74.33-2.2,1s-.69,1.59-.69,2.78c0,1.3.23,2.24.69,2.83.46.59,1.19.89,2.2.89s1.74-.3,2.2-.89c.46-.59.69-1.54.69-2.83,0-1.19-.23-2.12-.69-2.78s-1.19-1-2.2-1Z"/>
    <path class="cls-2" d="M360.16,443.56c-.36,0-.63-.06-.81-.19-.18-.12-.27-.38-.27-.76,0-.45.09-.76.26-.92s.45-.24.82-.24h1.7c.45,0,.78-.1.99-.31s.31-.58.31-1.12v-14.55c0-.18.09-.27.27-.27h1.73c.18,0,.27.09.27.27v14.69c0,1.17-.24,2.03-.73,2.58s-1.3.82-2.43.82h-2.11Z"/>
    <path class="cls-2" d="M371.47,443.29c0,.18-.09.27-.27.27h-1.73c-.18,0-.27-.09-.27-.27v-17.82c0-.18.09-.27.27-.27h1.73c.18,0,.27.09.27.27v17.82Z"/>
  </g>
</svg>