<?xml version="1.0" encoding="UTF-8"?>
<svg id="OBJECTS" xmlns="http://www.w3.org/2000/svg" viewBox="0 0 700.42 786.71">
  <defs>
    <style>
      .cls-1 {
        fill: #d8a941;
      }

      .cls-2 {
        fill: #e9c46a;
      }
    </style>
  </defs>
  <path class="cls-1" d="M585.01,158.55h-137.55l-97.26-97.26-97.26,97.26H115.4v137.55l-97.26,97.26,97.26,97.26v137.55h137.55l97.26,97.26,97.26-97.26h137.55v-137.55l97.26-97.26-97.26-97.26v-137.55ZM626.42,393.36l-69.33,69.33-11.57,11.57v114.41h-114.41l-80.9,80.9-80.9-80.9h-114.41v-114.41l-11.57-11.57-69.33-69.33,80.9-80.9v-114.41h114.41l11.57-11.57,69.33-69.33,69.33,69.33,11.57,11.57h114.41v114.41l80.9,80.9Z"/>
  <polygon class="cls-2" points="527.04 216.53 423.46 216.53 412.98 206.05 350.21 143.28 287.44 206.05 276.96 216.53 173.38 216.53 173.38 320.11 100.13 393.36 162.9 456.13 173.38 466.6 173.38 570.19 276.96 570.19 350.21 643.43 423.46 570.19 527.04 570.19 527.04 466.6 537.51 456.13 600.28 393.36 527.04 320.11 527.04 216.53"/>
</svg>